<?xml version="1.0" encoding="utf-8"?>
<!-- Generator: Adobe Illustrator 16.0.0, SVG Export Plug-In . SVG Version: 6.00 Build 0)  -->
<!DOCTYPE svg PUBLIC "-//W3C//DTD SVG 1.1//EN" "http://www.w3.org/Graphics/SVG/1.1/DTD/svg11.dtd">
<svg version="1.1" id="Layer_1" xmlns="http://www.w3.org/2000/svg" xmlns:xlink="http://www.w3.org/1999/xlink" x="0px" y="0px"
	 width="45.899px" height="38.184px" viewBox="0 0 45.899 38.184" enable-background="new 0 0 45.899 38.184" xml:space="preserve">
<g>
	<path fill="#344168" d="M45.899,36.12c0,1.14-1.112,2.064-2.482,2.064H2.481C1.111,38.184,0,37.26,0,36.12V2.065
		C0,0.924,1.111,0,2.481,0h40.936c1.37,0,2.482,0.924,2.482,2.065V36.12z"/>
	<polyline fill="none" stroke="#FFFFFF" stroke-width="4" stroke-miterlimit="10" points="20.323,-0.778 6.008,19.092 
		20.968,39.479 	"/>
	<path fill="none" stroke="#FFFFFF" stroke-width="4" stroke-miterlimit="10" d="M34.709-0.249v10.725c0,0,5.439,0.692,5.535,5.603
		c0.096,4.91-5.535,5.989-5.535,5.989v9.145h14.958"/>
	<path fill="#86D2DB" d="M20.323,0L6.652,19.092l13.67,19.092h23.62c0,0,1.956-0.526,1.956-2.064c0-1.537,0-4.503,0-4.503
		l-11.544,0.067l0.068-10.042c0,0,5.439-0.876,5.439-5.594s-5.511-5.055-5.511-5.055L34.208,0H20.323z"/>
</g>
</svg>
