<?xml version="1.0" encoding="utf-8"?>
<!-- Generator: Adobe Illustrator 16.0.0, SVG Export Plug-In . SVG Version: 6.00 Build 0)  -->
<!DOCTYPE svg PUBLIC "-//W3C//DTD SVG 1.1//EN" "http://www.w3.org/Graphics/SVG/1.1/DTD/svg11.dtd">
<svg version="1.1" id="Layer_1" xmlns="http://www.w3.org/2000/svg" xmlns:xlink="http://www.w3.org/1999/xlink" x="0px" y="0px"
	 width="44.952px" height="40.807px" viewBox="0 0 44.952 40.807" enable-background="new 0 0 44.952 40.807" xml:space="preserve">
<g>
	<path fill="#203244" d="M44.952,38.601c0,1.219-1.088,2.206-2.43,2.206H2.43c-1.343,0-2.43-0.987-2.43-2.206V2.2
		c0-1.218,1.087-2.206,2.43-2.206h40.092c1.342,0,2.43,0.987,2.43,2.206V38.601z"/>
	<polyline fill="none" stroke="#FFFFFF" stroke-width="4" stroke-miterlimit="10" points="19.977,-0.885 5.884,20.401 
		20.535,42.192 	"/>
	<path fill="none" stroke="#FFFFFF" stroke-width="4" stroke-miterlimit="10" d="M33.993-0.271V11.19c0,0,5.327,0.741,5.421,5.989
		s-5.421,6.401-5.421,6.401v9.775H45.43"/>
	<path fill="#00A88E" d="M19.904-0.005L6.515,20.401l13.389,20.406h23.132c0,0,1.916-0.562,1.916-2.206c0-1.643,0-4.812,0-4.812
		l-11.307,0.071l0.067-10.732c0,0,5.327-0.937,5.327-5.979c0-5.042-5.397-5.403-5.397-5.403l-0.14-11.75H19.904z"/>
</g>
</svg>
